<?xml version="1.0" encoding="utf-8"?>
<!-- Generator: Adobe Illustrator 27.5.0, SVG Export Plug-In . SVG Version: 6.00 Build 0)  -->
<svg version="1.1" id="Layer_1" xmlns="http://www.w3.org/2000/svg" xmlns:xlink="http://www.w3.org/1999/xlink" x="0px" y="0px"
	 viewBox="0 0 3000 2000" style="enable-background:new 0 0 3000 2000;" xml:space="preserve">
<g>
	<rect style="fill:#FFFFFF;" width="3000" height="2000"/>
	<g>
		<path style="fill:#EBF2F9;" d="M768.499,1751.16c0,0-222.721-5.298-317.891-140.286
			c-172.413-244.545-94.714-458.998,212.238-443.035c343.38,17.858,301.03-740.204,895.603-375.227
			c129.108,79.253,416.452-87.186,531.249,259.581c27.298,82.459,232.306,88.202,364.8,154.329
			c207.831,103.727,149.138,546.366-47.201,548.109C2210.957,1756.373,768.499,1751.16,768.499,1751.16z"/>
		<path style="fill:#D2E4FF;" d="M2484.331,469.245l7.168,2.537l-199.898-136.608l-466.167,140.429l-2.382,139.632h-10.663
			c-6.311,0-11.475,5.164-11.475,11.475v11.475c0,6.311,5.164,11.475,11.475,11.475h36.976c6.312,0,11.475-5.164,11.475-11.475
			v-11.475c0-6.311-5.164-11.475-11.475-11.475h-17.996l87.728-94.352h314.69v1231.679h76.502V520.884h65.027v26.775
			c0,6.312,5.164,11.475,11.475,11.475h97.54c6.311,0,11.475-5.164,11.475-11.475V480.72
			C2495.806,474.409,2490.642,469.245,2484.331,469.245z M1829.747,607.15l2.253-84.816l77.956-1.449L1829.747,607.15z
			 M2386.791,469.245c-5.659,0-10.383,4.155-11.302,9.563h-537.486L2290.491,342.5l187.855,126.745H2386.791z"/>
		<path style="fill:#EBF2F9;" d="M927.061,785.74h-7.315l-1.633-95.78l-319.767-96.327l-136.083,93.002
			c-0.384,0.22-0.751,0.467-1.091,0.746l-0.01,0.007l0.002-0.001c-1.762,1.447-2.891,3.639-2.891,6.083v45.917
			c0,4.329,3.542,7.871,7.872,7.871h66.907c4.329,0,7.871-3.542,7.871-7.871V721.02h44.605v844.868h52.477V721.02h215.862
			l60.176,64.72h-12.344c-4.329,0-7.871,3.543-7.871,7.872v7.872c0,4.329,3.542,7.871,7.871,7.871h25.364
			c4.329,0,7.872-3.542,7.872-7.871v-7.872C934.933,789.283,931.391,785.74,927.061,785.74z M540.804,692.158
			c-0.63-3.71-3.87-6.56-7.752-6.56h-62.803l128.859-86.94l310.384,93.5H540.804z M915.155,780.194l-55.019-59.174l53.697,1.313
			L915.155,780.194z"/>
		<g>
			<rect x="1099.15" y="379.89" style="fill:#D2E4FF;" width="441.482" height="1373.808"/>
			<g>
				<rect x="1221.087" y="569.448" style="opacity:0.5;fill:#AED3FF;" width="319.545" height="201.263"/>
				<rect x="1221.087" y="937.99" style="opacity:0.5;fill:#AED3FF;" width="319.545" height="201.263"/>
				<rect x="1221.087" y="1301.775" style="opacity:0.5;fill:#AED3FF;" width="319.545" height="201.263"/>
			</g>
			<polygon style="fill:#AED3FF;" points="548.788,1501.75 608.366,1501.75 608.366,1315.639 1099.15,1315.639 1099.15,379.89 
				1221.087,379.89 1221.087,1754.47 1099.15,1754.47 1099.15,1753.698 608.366,1753.698 608.366,1753.698 548.788,1753.698 			"/>
		</g>
		<path style="fill:#D2E4FF;" d="M1676.345,764.22v-7.415h16.228v-48.938h13.431v48.938h34.025v-48.938h13.431v48.938h36.99v-48.938
			h13.432v48.938h34.024v-48.938h13.431v48.938h17.796v7.415h-17.796v23.827h17.796v7.415h-17.796v23.827h17.796v7.415h-17.796
			v23.827h17.796v7.415h-17.796v23.827h17.796v7.415h-17.796v23.827h17.796v7.415h-17.796v19.279h17.796v7.415h-17.796v23.827
			h17.796v7.415h-17.796v23.826h17.796v7.415h-17.796v23.827h17.796v7.415h-17.796v23.827h17.796v7.415h-17.796v23.827h17.796v7.415
			h-17.796v22.74h17.796v7.415h-17.796v23.826h17.796v7.416h-17.796v23.826h17.796v7.416h-17.796v23.826h17.796v7.416h-17.796
			v23.826h17.796v7.415h-17.796v23.827h17.796v7.415h-17.796v19.279h17.796v7.415h-17.796v23.827h17.796v7.415h-17.796v23.826
			h17.796v7.416h-17.796v23.826h17.796v7.416h-17.796v23.826h17.796v7.416h-17.796v23.826h17.796v7.416h-17.796v21.256h17.796v7.415
			h-17.796v23.827h17.796v7.415h-17.796v23.827h17.796v7.415h-17.796v23.827h17.796v7.415h-17.796v23.826h17.796v7.415h-17.796
			v23.827h17.796v7.415h-17.796v19.279h17.796v7.416h-17.796v23.826h17.796v7.415h-17.796v23.827h17.796v7.415h-192.788v-7.415
			h16.228v-23.827h-16.228v-7.415h16.228v-23.826h-16.228v-7.416h16.228v-19.279h-16.228v-7.415h16.228v-23.827h-16.228v-7.415
			h16.228v-23.826h-16.228v-7.415h16.228v-23.827h-16.228v-7.415h16.228v-23.827h-16.228v-7.415h16.228v-23.827h-16.228v-7.415
			h16.228v-21.256h-16.228v-7.416h16.228v-23.826h-16.228v-7.416h16.228v-23.826h-16.228v-7.416h16.228v-23.826h-16.228v-7.416
			h16.228v-23.826h-16.228v-7.415h16.228v-23.827h-16.228v-7.415h16.228v-19.279h-16.228v-7.415h16.228v-23.827h-16.228v-7.415
			h16.228v-23.826h-16.228v-7.416h16.228v-23.826h-16.228v-7.416h16.228v-23.826h-16.228v-7.416h16.228v-23.826h-16.228v-7.415
			h16.228v-22.74h-16.228v-7.415h16.228v-23.827h-16.228v-7.415h16.228v-23.827h-16.228v-7.415h16.228v-23.827h-16.228v-7.415
			h16.228v-23.826h-16.228v-7.415h16.228v-23.827h-16.228v-7.415h16.228v-19.279h-16.228v-7.415h16.228v-23.827h-16.228v-7.415
			h16.228v-23.827h-16.228v-7.415h16.228v-23.827h-16.228v-7.415h16.228v-23.827h-16.228v-7.415h16.228V764.22H1676.345z
			 M1753.46,764.22v23.827h36.99V764.22H1753.46z M1790.451,1707.993v-23.826h-36.99v23.826H1790.451z M1753.46,1715.408v23.827
			h36.99v-23.827H1753.46z M1790.451,1676.751v-19.279h-36.99v19.279H1790.451z M1790.451,1650.057v-23.827h-36.99v23.827H1790.451z
			 M1790.451,1618.816v-23.826h-36.99v23.826H1790.451z M1790.451,1587.575v-23.827h-36.99v23.827H1790.451z M1790.451,1556.333
			v-23.827h-36.99v23.827H1790.451z M1790.451,1525.092v-23.827h-36.99v23.827H1790.451z M1790.451,1493.85v-21.256h-36.99v21.256
			H1790.451z M1790.451,1465.178v-23.826h-36.99v23.826H1790.451z M1790.451,1433.937v-23.826h-36.99v23.826H1790.451z
			 M1790.451,1402.695v-23.826h-36.99v23.826H1790.451z M1790.451,1371.453v-23.826h-36.99v23.826H1790.451z M1790.451,1340.213
			v-23.827h-36.99v23.827H1790.451z M1790.451,1308.971v-19.279h-36.99v19.279H1790.451z M1790.451,1282.277v-23.827h-36.99v23.827
			H1790.451z M1790.451,1251.035v-23.826h-36.99v23.826H1790.451z M1790.451,1219.794v-23.826h-36.99v23.826H1790.451z
			 M1790.451,1188.552v-23.826h-36.99v23.826H1790.451z M1790.451,1157.31v-23.826h-36.99v23.826H1790.451z M1790.451,1126.069
			v-22.74h-36.99v22.74H1790.451z M1790.451,1095.915v-23.827h-36.99v23.827H1790.451z M1790.451,1064.673v-23.827h-36.99v23.827
			H1790.451z M1790.451,1033.432v-23.827h-36.99v23.827H1790.451z M1790.451,1002.19v-23.826h-36.99v23.826H1790.451z
			 M1790.451,970.949v-23.827h-36.99v23.827H1790.451z M1790.451,939.707v-19.279h-36.99v19.279H1790.451z M1790.451,913.013
			v-23.827h-36.99v23.827H1790.451z M1790.451,881.771v-23.827h-36.99v23.827H1790.451z M1790.451,850.53v-23.827h-36.99v23.827
			H1790.451z M1790.451,819.289v-23.827h-36.99v23.827H1790.451z M1837.906,764.22h-34.024v23.827h34.024V764.22z M1837.906,795.462
			h-34.024v23.827h34.024V795.462z M1837.906,826.703h-34.024v23.827h34.024V826.703z M1837.906,857.945h-34.024v23.827h34.024
			V857.945z M1837.906,889.187h-34.024v23.827h34.024V889.187z M1837.906,920.428h-34.024v19.279h34.024V920.428z M1837.906,947.122
			h-34.024v23.827h34.024V947.122z M1837.906,978.364h-34.024v23.826h34.024V978.364z M1837.906,1009.605h-34.024v23.827h34.024
			V1009.605z M1837.906,1040.846h-34.024v23.827h34.024V1040.846z M1837.906,1072.088h-34.024v23.827h34.024V1072.088z
			 M1837.906,1103.33h-34.024v22.74h34.024V1103.33z M1837.906,1133.484h-34.024v23.826h34.024V1133.484z M1837.906,1164.726
			h-34.024v23.826h34.024V1164.726z M1837.906,1195.967h-34.024v23.826h34.024V1195.967z M1837.906,1227.209h-34.024v23.826h34.024
			V1227.209z M1837.906,1258.45h-34.024v23.827h34.024V1258.45z M1837.906,1289.692h-34.024v19.279h34.024V1289.692z
			 M1837.906,1316.385h-34.024v23.827h34.024V1316.385z M1837.906,1347.627h-34.024v23.826h34.024V1347.627z M1837.906,1378.869
			h-34.024v23.826h34.024V1378.869z M1837.906,1410.111h-34.024v23.826h34.024V1410.111z M1837.906,1441.352h-34.024v23.826h34.024
			V1441.352z M1837.906,1472.594h-34.024v21.256h34.024V1472.594z M1837.906,1501.264h-34.024v23.827h34.024V1501.264z
			 M1837.906,1532.506h-34.024v23.827h34.024V1532.506z M1837.906,1563.748h-34.024v23.827h34.024V1563.748z M1837.906,1594.99
			h-34.024v23.826h34.024V1594.99z M1837.906,1626.23h-34.024v23.827h34.024V1626.23z M1837.906,1657.472h-34.024v19.279h34.024
			V1657.472z M1837.906,1684.167h-34.024v23.826h34.024V1684.167z M1837.906,1715.408h-34.024v23.827h34.024V1715.408z
			 M1706.005,1739.235h34.025v-23.827h-34.025V1739.235z M1706.005,1707.993h34.025v-23.826h-34.025V1707.993z M1706.005,1676.751
			h34.025v-19.279h-34.025V1676.751z M1706.005,1650.057h34.025v-23.827h-34.025V1650.057z M1706.005,1618.816h34.025v-23.826
			h-34.025V1618.816z M1706.005,1587.575h34.025v-23.827h-34.025V1587.575z M1706.005,1556.333h34.025v-23.827h-34.025V1556.333z
			 M1706.005,1525.092h34.025v-23.827h-34.025V1525.092z M1706.005,1493.85h34.025v-21.256h-34.025V1493.85z M1706.005,1465.178
			h34.025v-23.826h-34.025V1465.178z M1706.005,1433.937h34.025v-23.826h-34.025V1433.937z M1706.005,1402.695h34.025v-23.826
			h-34.025V1402.695z M1706.005,1371.453h34.025v-23.826h-34.025V1371.453z M1706.005,1340.213h34.025v-23.827h-34.025V1340.213z
			 M1706.005,1308.971h34.025v-19.279h-34.025V1308.971z M1706.005,1282.277h34.025v-23.827h-34.025V1282.277z M1706.005,1251.035
			h34.025v-23.826h-34.025V1251.035z M1706.005,1219.794h34.025v-23.826h-34.025V1219.794z M1706.005,1188.552h34.025v-23.826
			h-34.025V1188.552z M1706.005,1157.31h34.025v-23.826h-34.025V1157.31z M1706.005,1126.069h34.025v-22.74h-34.025V1126.069z
			 M1706.005,1095.915h34.025v-23.827h-34.025V1095.915z M1706.005,1064.673h34.025v-23.827h-34.025V1064.673z M1706.005,1033.432
			h34.025v-23.827h-34.025V1033.432z M1706.005,1002.19h34.025v-23.826h-34.025V1002.19z M1706.005,970.949h34.025v-23.827h-34.025
			V970.949z M1706.005,939.707h34.025v-19.279h-34.025V939.707z M1706.005,913.013h34.025v-23.827h-34.025V913.013z
			 M1706.005,881.771h34.025v-23.827h-34.025V881.771z M1706.005,850.53h34.025v-23.827h-34.025V850.53z M1706.005,819.289h34.025
			v-23.827h-34.025V819.289z M1706.005,788.047h34.025V764.22h-34.025V788.047z"/>
		<g>
			<rect x="1513.028" y="311.443" style="fill:#D2E4FF;" width="4.753" height="84.608"/>
			<rect x="1249.695" y="311.443" style="fill:#D2E4FF;" width="4.753" height="84.608"/>
			<rect x="1479.754" y="311.443" style="fill:#D2E4FF;" width="4.753" height="84.608"/>
			<rect x="1225.929" y="311.443" style="fill:#D2E4FF;" width="4.753" height="84.608"/>
		</g>
	</g>
	<path style="fill:#283250;" d="M2883.206,1758.549H116.794c-1.674,0-3.043-1.37-3.043-3.043l0,0c0-1.674,1.37-3.043,3.043-3.043
		h2766.411c1.674,0,3.043,1.37,3.043,3.043l0,0C2886.249,1757.179,2884.879,1758.549,2883.206,1758.549z"/>
	<path style="fill:#E69D43;" d="M699.669,1752.462H235.675c31.601-23.327,178.949-128.709,256.923-125.219
		c20.343,0.918,42.98,8.722,65.75,20.161C616.682,1676.71,675.884,1729.909,699.669,1752.462z"/>
	<path style="fill:#2B478B;" d="M573.302,1485.304c-2.088-0.478-4.187,0.84-4.666,2.928l-35.371,154.476
		c-9.554,0.283-19.267,10.629-22.567,25.039l-3.37,14.716c-0.176,0.767-0.386,1.686-0.46,2.476l39.279,8.994
		c0.378-0.72,0.588-1.64,0.764-2.406l3.37-14.717c3.291-14.371-0.922-27.879-9.428-32.343l35.376-154.496
		C576.707,1487.883,575.39,1485.783,573.302,1485.304z"/>
	<path style="fill:#E69D43;" d="M470.508,1684.7c0,0,81.582-21.132,107.63-3.932c26.047,17.201-13.269,35.385-13.269,35.385
		L470.508,1684.7z"/>
	<g>
		<g>
			<defs>
				<polygon id="SVGID_1_" points="2289.656,1374.292 2376.989,1172.292 2536.156,1172.292 2541.656,1528.792 2347.989,1528.792 
					2289.656,1445.292 				"/>
			</defs>
			<use xlink:href="#SVGID_1_"  style="overflow:visible;fill:#233862;"/>
			<clipPath id="SVGID_00000036966674749017411550000001640215844418130623_">
				<use xlink:href="#SVGID_1_"  style="overflow:visible;"/>
			</clipPath>
			<polygon style="opacity:0.6;clip-path:url(#SVGID_00000036966674749017411550000001640215844418130623_);fill:#FFFFFF;" points="
				2302.657,1500.53 2261.646,1494.006 2415.128,1152.756 2456.139,1159.28 			"/>
			<polygon style="opacity:0.6;clip-path:url(#SVGID_00000036966674749017411550000001640215844418130623_);fill:#FFFFFF;" points="
				2338.019,1506.156 2324.851,1504.061 2478.333,1162.81 2491.501,1164.905 			"/>
			<polygon style="opacity:0.6;clip-path:url(#SVGID_00000036966674749017411550000001640215844418130623_);fill:#FFFFFF;" points="
				2420.821,1519.327 2379.81,1512.803 2533.292,1171.553 2574.303,1178.077 			"/>
			<polygon style="opacity:0.6;clip-path:url(#SVGID_00000036966674749017411550000001640215844418130623_);fill:#FFFFFF;" points="
				2456.183,1524.952 2443.015,1522.858 2596.497,1181.607 2609.665,1183.702 			"/>
		</g>
		<g>
			<defs>
				<polygon id="SVGID_00000170260288204777024430000013942014047408230294_" points="2105.656,1362.792 2185.156,1175.292 
					2376.989,1175.292 2291.656,1381.292 				"/>
			</defs>
			<use xlink:href="#SVGID_00000170260288204777024430000013942014047408230294_"  style="overflow:visible;fill:#2B478B;"/>
			<clipPath id="SVGID_00000026853572089270750950000004677333162719318445_">
				<use xlink:href="#SVGID_00000170260288204777024430000013942014047408230294_"  style="overflow:visible;"/>
			</clipPath>
			<polygon style="opacity:0.6;clip-path:url(#SVGID_00000026853572089270750950000004677333162719318445_);fill:#FFFFFF;" points="
				2093.351,1374.118 2055.094,1357.967 2264.904,1112.885 2303.16,1129.037 			"/>
			<polygon style="opacity:0.6;clip-path:url(#SVGID_00000026853572089270750950000004677333162719318445_);fill:#FFFFFF;" points="
				2126.338,1388.045 2114.054,1382.859 2323.864,1137.778 2336.148,1142.964 			"/>
			<polygon style="opacity:0.6;clip-path:url(#SVGID_00000026853572089270750950000004677333162719318445_);fill:#FFFFFF;" points="
				2203.58,1420.655 2165.323,1404.504 2375.132,1159.422 2413.389,1175.574 			"/>
		</g>
		<path style="fill:#2B478B;" d="M2647.989,1193.958h-20v-67.292c0-16.565,13.477-30.042,30.042-30.042h1.958v20h-1.958
			c-5.537,0-10.042,4.504-10.042,10.042V1193.958z"/>
		<polygon style="fill:#FFA412;" points="2177.656,1166.625 2092.989,1367.292 2115.822,1359.292 2191.322,1181.292 
			2363.322,1181.292 2369.36,1166.625 		"/>
		<polygon style="fill:#E27F2B;" points="2656.656,1522.292 2732.989,1607.292 2732.989,1618.292 2555.027,1618.292 
			2555.027,1529.292 		"/>
		<polygon style="fill:#FFA412;" points="1533.655,1403.375 1565.655,1359.292 2247.322,1359.292 2347.989,1522.292 
			1503.655,1522.292 		"/>
		<path style="fill:#4A75CB;" d="M2604.656,1741.292h-704v-194h691.333c57.069,0,103.333,46.264,103.333,103.333v0
			C2695.322,1700.699,2654.729,1741.292,2604.656,1741.292z"/>
		<path style="fill:#233862;" d="M2589.156,1533.292h-728c-60.751,0-110,49.248-110,110v0c0,60.751,49.249,110,110,110h728
			c60.751,0,110-49.249,110-110v0C2699.156,1582.54,2649.907,1533.292,2589.156,1533.292z M2691.156,1643.292
			c0,49.045-39.759,88.804-88.804,88.804h-587.724c-49.045,0-88.804-39.759-88.804-88.804v0c0-49.045,39.759-88.804,88.804-88.804
			h587.724C2651.396,1554.487,2691.156,1594.246,2691.156,1643.292L2691.156,1643.292z"/>
		<g>
			<ellipse style="fill:#233862;" cx="2066.989" cy="1647.958" rx="26" ry="32"/>
			<ellipse style="fill:#233862;" cx="2234.989" cy="1646.292" rx="26" ry="32"/>
			<ellipse style="fill:#233862;" cx="2402.989" cy="1644.458" rx="26" ry="32"/>
			<ellipse style="fill:#233862;" cx="2570.989" cy="1643.542" rx="26" ry="32"/>
		</g>
		<polygon style="fill:#FFA412;" points="1707.655,1634.292 1886.655,1644.458 1971.655,1533.292 2656.656,1533.292 
			2656.656,1522.292 1803.655,1522.292 		"/>
		<polygon style="fill:#E27F2B;" points="1707.655,1644.458 1707.655,1634.292 1882.155,1634.292 1968.155,1522.292 
			2656.656,1522.292 2656.656,1533.292 1971.655,1533.292 1886.655,1644.458 		"/>
		<path style="fill:#E27F2B;" d="M2559.964,1359.292v-192.604H2368.26l-81.265,192.604h-498.339l-32,44.083l-30,118.917h844.333
			v-163H2559.964z M2498.656,1513.458h-117l-73.167-88.167v-66h-0.037l73.474-177.938h139v155.667
			c0,12.3-9.971,22.271-22.271,22.271l0,0V1513.458z"/>
		<path style="fill:#E27F2B;" d="M2544.989,1260.292h124.917c5.937,0,10.75,4.813,10.75,10.75v292.25l-46-34.5h-98.5
			L2544.989,1260.292z"/>
		<polygon style="fill:#4A75CB;" points="1675.658,1752.717 1106,1752.5 1331.382,1398.549 1899.685,1398.549 		"/>
		<polygon style="fill:#233862;" points="1675.5,1753.292 1205.75,1753.292 1624.79,1711.208 1902.165,1393.292 		"/>
		<path style="fill:#FFA412;" d="M2372.989,1167.625h-207.833c-4.602,0-8.333-3.731-8.333-8.333l0,0
			c0-4.602,3.731-8.333,8.333-8.333h207.833c4.603,0,8.333,3.731,8.333,8.333l0,0
			C2381.322,1163.894,2377.591,1167.625,2372.989,1167.625z"/>
		<path style="fill:#E27F2B;" d="M2572.322,1167.625h-212.667c-4.603,0-8.333-3.731-8.333-8.333l0,0
			c0-4.602,3.731-8.333,8.333-8.333h212.667c4.603,0,8.333,3.731,8.333,8.333l0,0
			C2580.656,1163.894,2576.925,1167.625,2572.322,1167.625z"/>
		<path style="fill:#233862;" d="M2637.989,1414.625L2637.989,1414.625c-12.15,0-22-9.85-22-22v-208.667c0-12.15,9.85-22,22-22l0,0
			c12.15,0,22,9.85,22,22v208.667C2659.989,1404.775,2650.139,1414.625,2637.989,1414.625z"/>
		<polygon style="fill:#FFA412;" points="1820.811,1522.292 1829.688,1508.258 2586.656,1523.292 		"/>
	</g>
	<path style="fill:#E27F2B;" d="M1809.619,1753.212h-463.994c22.348-6.377,102.545-28.62,175.18-40.631
		c30.103-4.976,58.901-8.194,81.743-7.798C1675.002,1706.04,1776.557,1741.088,1809.619,1753.212z"/>
	<path style="fill:#E69D43;" d="M1662.125,1753.212h-463.994c31.601-9.022,178.949-49.779,256.923-48.429
		c20.343,0.355,42.98,3.373,65.75,7.798C1579.138,1723.915,1638.34,1744.49,1662.125,1753.212z"/>
	<g>
		<path style="fill:#D9935C;" d="M1244.64,1046.59c16.695-85.573,31.995-167.494,31.995-167.494s-47.523,7.199-67.984,24.25
			c-20.461,17.051-22.53,125.624-29.351,156.316c-1.341,6.025-2.546,15.755-3.584,27.608c-3.878,44.142,0.949,110.246,4.603,128.777
			c-0.241,1.781-1.754,10.53-9.809,27.312c0,0-4.168,12.883,23.114,32.207C1211.01,1287.882,1226.505,1139.605,1244.64,1046.59z"/>
		<path style="fill:#739AF0;" d="M1276.635,879.096c0,0-8.821,47.212-20.37,107.391c-3.66,19.097-7.601,39.49-11.625,60.103
			c-16.354,32.056-30.389,53.851-34.724,49.751c-8.844-8.351-24.371-9.382-34.2-9.071c1.038-11.852,2.243-21.583,3.584-27.608
			c0.538-2.425,1.046-5.335,1.539-8.647c5.721-38.619,8.965-131.967,27.812-147.669
			C1229.112,886.295,1276.635,879.096,1276.635,879.096z"/>
		<path style="fill:#4A75CB;" d="M1256.265,986.487c-3.66,19.097-7.601,39.49-11.625,60.103
			c-16.354,32.056-30.389,53.851-34.724,49.751c-8.844-8.351-24.371-9.382-34.2-9.071c1.038-11.852,2.243-21.583,3.584-27.608
			c0.538-2.425,1.046-5.335,1.539-8.647l49.033-118.364L1256.265,986.487z"/>
		<path style="fill:#D9935C;" d="M1344.5,877.89c0.361-16.522,0.089-36.25-2.144-52.916l-65.947,10.777c0,0,0,20.123,0.29,42.453
			c-0.039,0.006-0.064,0.009-0.064,0.009s-1.798,20.715,23.715,23.746C1325.863,904.991,1345.188,893.876,1344.5,877.89z"/>
		<path style="fill:#CB7D45;" d="M1276.226,839.818c0,0,15.535,31.829,33.344,31.829c17.809,0,34.481-29.934,34.481-29.934
			L1276.226,839.818z"/>
		<path style="fill:#233862;" d="M1320.18,1753.965c0,0,2.399-18.693,7.957-29.808c5.557-11.115,40.922-4.042,40.922-4.042
			s7.073,6.063,8.589,34.354L1320.18,1753.965z"/>
		<path style="fill:#233862;" d="M1199.106,1753.292c8.309-5.072,3.581-42.91,3.581-42.91s-38.722-30.977-44.045-7.261
			c-5.324,23.717-36.786,34.365-54.694,37.27c-12.363,2.005-16.19,8.852-17.375,12.901H1199.106z"/>
		<path style="fill:#233862;" d="M1350.781,805.957c0,0,44.023-69.41-40.509-74.004c0,0-31.706,3.732-38.883-3.445
			c0,0-24.593,37.377-1.626,77.449C1292.73,846.028,1350.781,805.957,1350.781,805.957z"/>
		<path style="fill:#D9935C;" d="M1278.368,842.177c6.408,5.042,25.196,10.048,30.628,10.634c0,0,27.86-6.213,32.925-9.268
			c7.843-4.755,7.338-14.378,7.74-27.757c0.482-15.837,2.078-28.274,0.31-37.404c-2.102-10.921-9.027-17.134-28.411-18.822
			c-35.589-3.089-50.415,5.823-51.035,17.754c-0.161,3.204-0.31,6.259-0.413,9.153
			C1268.687,823.677,1271.626,836.872,1278.368,842.177z"/>
		<path style="fill:#2B478B;" d="M1279.894,1470.682c-1.576,8.685-2.577,15.808-2.842,20.916
			c-3.599,70.212-59.102,230.749-69.03,234.493c-15.361,5.797-39.551-6.525-52.206-10.556c-5.244-1.675-8.783-6.965-7.616-12.33
			c27.486-126.359,37.588-308.313,41.263-416.037c1.857-54.261,11.17-91.742,11.17-91.742s135.37-36.118,136.173,9.571
			C1337.519,1245.427,1291.966,1403.986,1279.894,1470.682z"/>
		<path style="fill:#233862;" d="M1279.894,1470.682l-90.431-183.514c1.857-54.261,11.17-91.742,11.17-91.742
			s135.37-36.118,136.173,9.571C1337.519,1245.427,1291.966,1403.986,1279.894,1470.682z"/>
		<path style="fill:#2B478B;" d="M1249.775,1205.158l71.562,518.66c0,0,31.426,7.579,55.869,1.516
			c0,0,20.951-275.847,19.204-342.536c-1.745-66.688,15.037-178.446-3.83-190.771
			C1373.714,1179.702,1249.775,1205.158,1249.775,1205.158z"/>
		<path style="fill:#FFA412;" d="M1402.865,1192.024c0.235,6.01-4.524,11.019-10.526,11.11l-112.772,1.72l-82.83,1.265
			c-3.88,0.068,8.382-30.964,8.631-233.303c0.061-45.151,69.962-93.735,71.25-93.735l0.015,0.015
			c0,6.502,10.246,18.506,26.031,19.537c18.733,1.227,41.717-8.094,41.717-18.885c0-0.121,2.175,2.236,5.677,7.328
			c9.351,13.626,28.191,46.849,40.217,104.686c9.496,45.674,5.843,106.739,12.678,185.53
			C1403.457,1182.983,1402.722,1188.038,1402.865,1192.024z"/>
		<path style="fill:#739AF0;" d="M1398.705,1203.762c0,0-14.99,6.715-43.029,12.527c-20.848,4.327-48.903,8.162-83.368,8.374
			c-54.813,0.349-75.57-18.544-75.57-18.544c-3.88,0.068,8.382-30.964,8.631-233.303c0.061-45.151,69.962-93.735,71.25-93.735
			l0.015,0.015c0,0-1.796,60.126,16.392,77.806c0,0,25.509-19.703,58.602-75.782c9.352,13.625,26.622,52.805,38.649,110.642
			c2.441,11.769,4.016,24.553,5.123,38.399c3.19,39.907,2.478,88.635,7.555,147.131c0.5,5.692-0.235,10.746-0.091,14.732
			C1403.101,1198.033,1404.715,1203.671,1398.705,1203.762z"/>
		<path style="fill:#4A75CB;" d="M1398.705,1203.762c0,0-14.99,6.715-43.029,12.527c-8.822-13.451-19.939-37.732-21.477-75.994
			c-2.607-64.703,58.857-148.028,58.857-148.028l2.345,37.893c3.19,39.907,2.478,88.635,7.555,147.131
			c0.5,5.692-0.235,10.746-0.091,14.732C1403.101,1198.033,1404.715,1203.671,1398.705,1203.762z"/>
		
			<rect x="1274.084" y="1003.799" transform="matrix(0.866 -0.5 0.5 0.866 -364.5878 812.8901)" style="fill:#2B478B;" width="120.976" height="165.946"/>
		<path style="fill:#D9935C;" d="M1410.739,900.823c-12.83-9.7-42.969-16.581-57.799-19.506c-5.228-1.031-8.556-1.569-8.556-1.569
			c1.546,7.131,5.025,18.317,9.572,31.745c19.051,56.284,56.814,151.989,49.205,154.028c-6.191,1.659-14.11,3.122-22.826,4.395
			c-33.122,4.85-77.691,6.996-82.355,7.211c-0.366-0.342-16.241-15.141-22.422-15.141c-6.254,0-24.279,6.568-26.118,11.62
			c-1.839,5.052-2.575,14.146,2.575,16.167c5.15,2.021,26.486,7.073,32.004,7.578c0.755,0.069,1.665,0.068,2.654-0.023
			c39.632,11.651,73.746,17.37,100.036,20.073c36.678,3.766,58.132,1.675,58.132,1.675
			C1471.411,1061.891,1428.094,913.941,1410.739,900.823z"/>
		<path style="fill:#739AF0;" d="M1444.841,1119.076c0,0-21.454,2.092-58.132-1.675c2.023-9.965,3.903-29.427-6.374-47.485
			c8.715-1.273,16.634-2.736,22.826-4.395c7.609-2.038-30.154-97.744-49.205-154.028c-1.523-18.195-2.327-30.373-2.327-30.373
			l1.311,0.197c14.831,2.925,44.97,9.806,57.799,19.506C1428.094,913.941,1471.411,1061.891,1444.841,1119.076z"/>
		<path style="fill:#4A75CB;" d="M1293.024,956.902c0,0,51.027-22.482,51.784-24.25c0.758-1.768-2.526-15.409-6.063-19.451
			c0,0,24.503,2.273,26.019-0.758c1.516-3.031,2.651-27.972,2.651-27.972s-10.199-10.558-22.829-11.568
			c0,0-11.089,27.555-15.188,35.752C1318.537,930.378,1293.024,956.902,1293.024,956.902z"/>
		<path style="fill:#4A75CB;" d="M1280.899,912.443c0,0,3.284,26.271,12.125,44.459c0,0-26.65-18.567-28.924-24.629
			c-2.273-6.062,6.442-17.809,6.442-17.809s-15.914-0.379-16.293-5.684c-0.379-5.305,4.926-26.145,4.926-26.145
			s13.688-9.994,17.477-9.615L1280.899,912.443z"/>
		<g>
			<path style="fill:#FFA412;" d="M1367.282,767.29l-113.319,1.212c0,0-1.663-34.17,17.976-55.958
				c0.896-1.008,1.846-1.983,2.85-2.932c4.238-4.025,9.341-7.5,15.478-10.059c22.65-9.449,41.438-0.729,53.177,8.203
				c1.157,0.873,2.245,1.754,3.256,2.627c6.383,5.424,9.946,10.263,9.946,10.263S1367.65,735.654,1367.282,767.29z"/>
			<path style="fill:#E27F2B;" d="M1335.451,767.63c-0.311-4.602-2.311-43.788,11.453-57.073c-1.012-0.873-0.721-0.695-1.878-1.568
				c-14.677,15.276-15.845,53.842-15.783,58.708l-36.225,0.387c-1.074-27.753-16.392-55.388-18.23-58.472
				c-1.004,0.949-1.193,1.136-2.09,2.144c2.658,4.676,12.659,31.433,13.615,56.4l-32.352,0.346c0,0,30.182,7.803,52.914,7.52
				c22.732-0.283,60.405-8.732,60.405-8.732L1335.451,767.63z"/>
		</g>
	</g>
	<g id="P297LW_3_">
		<path style="fill:#FFA412;" d="M1779.787,1059.976c10.797,33.05,69.642,90.179,77.775,95.875c0,0,13.691-22.819,10.953-35.598
			c-2.236-10.432-25.146-47.618-32.987-65.891c-0.411-0.949-0.776-1.853-1.095-2.693c-1.077-2.802-1.643-4.974-1.515-6.261
			c0.393-3.971,12.87-13.628,27.373-25.083c18.848-14.896,41.119-32.813,44.734-45.199c6.389-21.906,28.523-108.644,28.523-108.644
			s-54.993,11.893-70.51,25.584c-15.517,13.691-82.147,127.785-84.885,156.993
			C1777.852,1052.244,1778.454,1055.932,1779.787,1059.976z"/>
		<path style="fill:#D9935C;" d="M1779.787,1059.976c10.797,33.05,69.642,90.179,77.775,95.875c0,0,13.691-22.819,10.953-35.598
			c-2.355-10.971-27.583-51.552-34.082-68.584C1824.657,1049.972,1801.702,1047.891,1779.787,1059.976z"/>
		<path style="fill:#D9935C;" d="M1933.53,858.86l0.036,6.736c0,0-1.834,21.066,24.106,24.142
			c25.94,3.085,45.473-6.325,44.77-22.581c-2.336-12.587-4.782-23.12-4.956-33.534c-0.064-3.87,0.201-7.978,0.922-12.614
			l-50.265-1.004l-14.805,2.419L1933.53,858.86z"/>
		<path style="fill:#CB7D45;" d="M1933.338,822.424l0.192,36.437c5.34,2.483,11.364,3.998,18.118,3.998
			c23.102,0,38.034-16.94,45.839-29.235c-0.064-3.87,0.201-7.978,0.922-12.614l-50.265-1.004L1933.338,822.424z"/>
		<path style="fill:#FFA412;" d="M1977.835,1752.102c0,0,2.44-19.006,8.09-30.306c5.65-11.3,41.606-4.109,41.606-4.109
			s7.191,6.163,8.732,34.928L1977.835,1752.102z"/>
		<path style="fill:#FFA412;" d="M1854.833,1752.563c8.449-5.157,3.641-43.627,3.641-43.627s-39.368-31.494-44.781-7.382
			c-5.414,24.113-37.4,34.939-55.607,37.893c-12.569,2.038-16.461,8.999-17.666,13.116H1854.833z"/>
		<path style="fill:#2B478B;" d="M1936.877,1467.961c-1.603,8.83-2.619,16.072-2.889,21.265
			c-3.66,71.385-60.089,234.603-70.183,238.409c-15.618,5.894-40.211-6.634-53.078-10.733c-5.332-1.703-8.93-7.08-7.743-12.536
			c27.945-128.469,38.216-313.461,41.953-422.984c1.887-55.165,11.357-93.274,11.357-93.274s137.63-36.721,138.447,9.731
			C1995.464,1238.945,1949.15,1400.152,1936.877,1467.961z"/>
		<path style="fill:#233862;" d="M1936.877,1467.961l-91.941-186.579c1.887-55.165,11.357-93.274,11.357-93.274
			s137.63-36.721,138.447,9.731C1995.464,1238.945,1949.15,1400.152,1936.877,1467.961z"/>
		<path style="fill:#2B478B;" d="M1906.255,1198.003l72.757,527.321c0,0,31.951,7.704,56.802,1.54
			c0,0,21.301-280.453,19.526-348.255c-1.775-67.802,15.288-181.426-3.894-193.957
			C2032.264,1172.121,1906.255,1198.003,1906.255,1198.003z"/>
		<path style="fill:#FFA412;" d="M1852.332,1198.978c0,0,37.176,21.677,91.028,21.066c20.993-0.237,39.257-1.807,54.756-4.117
			c43.191-6.407,64.988-18.464,64.814-22.955c-0.146-4.053-0.429-17.516-0.94-23.303c-6.864-79.154-3.313-140.718-12.55-186.967
			c-0.109-0.557-0.219-1.114-0.338-1.661c-12.222-58.8-31.38-92.58-40.891-106.436c-3.478-5.057-5.659-7.448-5.769-7.448
			c0,10.971-23.366,20.446-42.415,19.204c-16.046-1.049-26.46-13.253-26.46-19.861l-0.018-0.018c-1.314,0-72.381,49.398-72.445,95.3
			C1860.857,1167.497,1848.389,1199.051,1852.332,1198.978z"/>
		<path style="fill:#E27F2B;" d="M1998.016,1215.253c0.037,0.228,0.064,0.456,0.1,0.675c43.191-6.407,64.988-18.464,64.814-22.955
			c-0.146-4.053-0.429-17.516-0.94-23.303c-6.864-79.154-3.313-140.718-12.55-186.967
			C2026.768,1013.005,1980.163,1092.369,1998.016,1215.253z"/>
		<g>
			<path style="fill:#E9F3FE;" d="M1879.705,1116.861l5.805,19.314l5.768,19.168l250.549-75.365
				c0.356,0.018,0.703-0.019,1.032-0.119c0.347-0.1,0.667-0.265,0.968-0.475c3.158-2.236,3.733-10.423,1.305-19.651
				c-0.128-0.511-0.273-1.022-0.429-1.542c-2.93-9.922-8.261-17.26-12.35-17.324c-0.338-0.009-0.657,0.036-0.977,0.127
				c-0.329,0.101-0.63,0.247-0.922,0.447L1879.705,1116.861z"/>
			<path style="fill:#BED4F4;" d="M1885.51,1136.175l5.768,19.168l250.549-75.365c0.356,0.018,0.703-0.019,1.032-0.119
				c0.347-0.1,0.667-0.265,0.968-0.475c3.158-2.236,3.733-10.423,1.305-19.651c-10.241,7.686-59.155,41.686-142.644,58.224
				C1916.187,1135.052,1889.48,1136.12,1885.51,1136.175z"/>
			<path style="fill:#AFCDFB;" d="M1879.224,1116.749c4.189-1.237,10.156,6.461,13.327,17.195
				c3.17,10.734,2.344,20.439-1.846,21.677c-4.19,1.237-10.157-6.461-13.327-17.195
				C1874.208,1127.692,1875.034,1117.987,1879.224,1116.749z"/>
		</g>
		<g>
			<path style="fill:#E9F3FE;" d="M2128.639,1034.364l29.537-4.792c0.32-0.155,0.63-0.265,0.977-0.319
				c0.329-0.045,0.648-0.055,0.977,0c4.052,0.602,8.37,8.571,9.976,18.794c0.091,0.539,0.164,1.059,0.228,1.588
				c0.575,4.527,0.493,8.716-0.11,12.067c-0.657,3.587-1.926,6.198-3.66,7.174c-0.037,0.027-0.073,0.045-0.1,0.064
				c-0.329,0.173-0.667,0.292-1.022,0.346c-0.338,0.055-0.685,0.046-1.041-0.018l-258.262,41.905l-3.204-19.752l-3.222-19.907
				L2128.639,1034.364z"/>
			<path style="fill:#BED4F4;" d="M2021.291,1088.672c55.24-3.55,84.521-32.758,107.348-54.308l29.537-4.792
				c0.32-0.155,0.63-0.265,0.977-0.319c0.329-0.045,0.648-0.055,0.977,0c4.052,0.602,8.37,8.571,9.976,18.794
				c0.091,0.539,0.164,1.059,0.228,1.588c0.575,4.527,0.493,8.716-0.11,12.067c-1.387,3.924-2.811,6.59-3.66,7.174
				c-0.037,0.027-0.073,0.045-0.1,0.064c-0.329,0.173-0.667,0.292-1.022,0.346c-0.338,0.055-0.685,0.046-1.041-0.018
				l-258.262,41.905l-3.204-19.752C1906.878,1091.885,1933.494,1094.322,2021.291,1088.672z"/>
			<path style="fill:#AFCDFB;" d="M1899.247,1071.335c4.316-0.678,9.223,7.735,10.96,18.792c1.737,11.057-0.353,20.57-4.669,21.248
				c-4.316,0.679-9.223-7.735-10.961-18.792C1892.84,1081.527,1894.931,1072.013,1899.247,1071.335z"/>
		</g>
		<path style="fill:#D9935C;" d="M1991.125,1147.334c59.903-9.529,99.499-34.63,115.755-46.769c5.55-4.144,8.379-6.782,8.379-6.782
			c30.696-64.531-24.836-177.676-34.985-196.853c-10.953-20.683-77.83-29.774-77.83-29.774s10.679,31.417,14.851,72.372
			c4.171,40.955,48.677,120.784,46.851,127.484c-0.456,1.688-5.832,5.23-13.673,9.702c-23.248,13.235-68.173,34.575-70.902,39.586
			C1975.918,1122.992,1991.125,1147.334,1991.125,1147.334z"/>
		<path style="fill:#D9935C;" d="M1979.566,1116.298c0,0-33.468-13.387-41.682-7.911c-8.215,5.476-21.906,13.691-21.906,19.168
			c0,5.477,17.343,20.081,31.947,24.645c14.604,4.563,43.203-4.869,43.203-4.869L1979.566,1116.298z"/>
		<path style="fill:#FFA412;" d="M2017.293,939.529c4.171,40.955,48.677,120.784,46.851,127.484
			c-0.456,1.688-5.832,5.23-13.673,9.702c0.493,0.037,0.995,0.046,1.506,0.028c35.013-1.543,50.858,17.826,54.902,23.822
			c5.55-4.144,8.379-6.782,8.379-6.782c30.696-64.531-24.836-177.676-34.985-196.853c-10.953-20.683-77.83-29.774-77.83-29.774
			S2013.122,898.574,2017.293,939.529z"/>
		<path style="fill:#D9935C;" d="M1930.405,840.129c0,0,64.377,13.004,71.858-27.211c7.481-40.215,20.829-65.621-19.957-75.624
			c-40.787-10.003-51.651,3.852-57.412,16.668C1919.131,766.778,1913.851,835.71,1930.405,840.129z"/>
		<path style="fill:#233862;" d="M2000.977,824.514c0,0,12.446-26.562,22.825-38.357c10.379-11.795,4.718-70.768-40.102-68.881
			c-44.82,1.888-60.861,33.969-61.333,40.102c-0.472,6.133,35.856,1.415,45.764,9.436c9.907,8.021,0.472,21.231,11.794,25.948
			c11.323,4.718,20.287,4.718,18.4,15.097C1996.438,818.239,2000.977,824.514,2000.977,824.514z"/>
		<path style="fill:#FFA412;" d="M1987.145,689.892c12.824,3.222,22.444,8.37,29.628,14.567c0.712,0.612,1.406,1.241,2.072,1.88
			l0.01,0.009c26.579,25.347,15.973,65.69,15.973,65.69s-3.538,10.192-5.973,14.148c-2.434,3.955-37.727-0.609-39.552-8.215
			c-1.826-7.606-8.823-15.517-8.823-15.517s-37.202-2.557-39.704-2.738c-8.404-0.609-32.391-8.954-32.391-8.954
			C1908.658,748.409,1922.157,673.572,1987.145,689.892z"/>
		<path style="fill:#E27F2B;" d="M1886.345,742.859c4.464-1.091,12.073-2.305,24.613-2.765c0,0,10.529,8.722,31.462,15.369
			c9.838-12.396,37.862-42.267,74.353-51.004c0.109-0.027,0.21-0.055,0.319-0.082c0.776,0.976,1.214,1.305,1.752,1.962l0.01,0.009
			c0.164,0.191,0.338,0.42,0.529,0.703c-29.706,5.176-57.942,38.54-67.633,51.03c8.316,2.045,17.882,3.66,28.729,4.374
			c0,0-65.02,1.213-94.737-14.435C1883.477,746.829,1883.859,743.466,1886.345,742.859z"/>
		<path style="fill:#E27F2B;" d="M1820.14,1038.106c1.205,6.828,4.883,14.011,15.389,16.256c-0.411-0.949-0.776-1.853-1.095-2.693
			c-1.077-2.802-1.643-4.974-1.515-6.261c0.393-3.971,12.87-13.628,27.373-25.083c1.196-6.499,4.117-25.785,0.009-41.092
			C1855.28,960.523,1818.77,1030.348,1820.14,1038.106z"/>
		<path style="fill:#E27F2B;" d="M2057.454,1072.106c0,0,44.725-3.651,59.329,22.362c0,0-1.248,8.771-9.903,6.097
			c0,0-37.833-25.858-56.408-23.85C2050.471,1076.715,2053.346,1072.182,2057.454,1072.106z"/>
		<path style="fill:#E27F2B;" d="M1835.528,1054.362c0,0-23.204,0.972-52.412,13.693c0,0-6.484-6.37-3.898-10.021
			C1781.804,1054.384,1822.926,1041.258,1835.528,1054.362z"/>
	</g>
	<g>
		<path style="fill:#4A75CB;" d="M849.76,1235.189c0,0-45.911,47.395-48.114,65.266c-2.203,17.872,21.843,45.829,21.843,45.829
			L849.76,1235.189z"/>
		<path style="fill:#163560;" d="M869.389,1727.044c0,0,1.562,25.196,6.437,25.557c0.648,0.048,24.724,0.048,24.724,0.048
			l30.734-0.178c0,0-0.201-7.405-9.185-8.971c-8.984-1.565-24.02-7.879-29.462-19.753
			C886.911,1711.257,869.389,1727.044,869.389,1727.044z"/>
		<path style="fill:#163560;" d="M800.935,1727.044c0,0,1.562,25.196,6.437,25.557c0.648,0.048,24.724,0.048,24.724,0.048
			l30.826-0.109c0,0-0.294-7.474-9.277-9.04c-8.984-1.565-24.02-7.879-29.462-19.753
			C818.457,1711.257,800.935,1727.044,800.935,1727.044z"/>
		<path style="fill:#233862;" d="M903.426,1456.665c0,0-8.038,51.409-38.023,142.668c-29.986,91.259-34.072,130.777-34.072,130.777
			s-8.111,1.176-16.678,1.176c-5.419,0-15.489-2.078-15.489-2.078s-0.275-99.735,13.545-145.626
			c13.819-45.891,2.982-165.441,2.982-165.441L903.426,1456.665z"/>
		<path style="fill:#2B478B;" d="M919.079,1420.957c0,0,1.138,77.47-12.265,172.589c-13.404,95.119-8.86,135.496-8.86,135.496
			s-11.035,1.976-14.911,2.106c-4.149,0.138-17.191-1.038-17.191-1.038s-19.185-95.155-13.684-142.765
			c5.5-47.609-26.271-163.369-26.271-163.369L919.079,1420.957z"/>
		<path style="fill:#FFB27D;" d="M856.933,1239.667l15.141,11.214l21.883-4.607c-0.303-1.996-1.747-10.266-3.063-17.757
			c-0.08-0.442-0.159-0.884-0.233-1.316c-1.127-6.374-2.1-11.85-2.1-11.85l-20.438-10.187l-7.62-3.798
			c0.02,0.134,0.591,7.074,0.67,8.087C862.602,1227.445,856.933,1239.667,856.933,1239.667z"/>
		<path style="fill:#4A75CB;" d="M892.426,1234.009c-0.479-0.202-29.768-8.845-32.949-7.794c-3.182,1.051-5.065,7.207-5.065,7.207
			l47.905,10.83C902.316,1244.251,898.546,1236.585,892.426,1234.009z"/>
		<path style="fill:#739AF0;" d="M813.56,1430.521c4.964,22.647,87.586,25.333,108.883,4.775c2.423-2.343,2.542-13.244,1.628-27.944
			c-1.787-28.718-7.526-71.918-7.749-93.989c-0.109-10.658-1.574-21.56-3.525-31.459c-4.15-21.098-10.479-37.655-10.479-37.655
			s-40.355-13.046-47.906-10.827C818.033,1244.11,808.595,1407.873,813.56,1430.521z"/>
		<path style="fill:#4A75CB;" d="M924.071,1407.352c-1.787-28.718-7.526-71.918-7.749-93.989
			c-0.109-10.658-1.574-21.56-3.525-31.459l-24.276-4.284C888.521,1277.619,864.787,1374.563,924.071,1407.352z"/>
		<path style="fill:#FFB27D;" d="M910.925,1367.322c0,0-1.655,3.955,1.82,6.611c3.475,2.656,5.729,6.958,4.933,10.102
			c-0.796,3.144-8.419,8.273-11.061,7.447c-2.642-0.827-8.02-4.969-7.441-6.627c0.579-1.658-3.617-14.554,2.825-19.518
			C908.443,1360.372,910.925,1367.322,910.925,1367.322z"/>
		<path style="fill:#739AF0;" d="M883.78,1238.438c0,0,23.675,4.43,42.54,32.23c18.864,27.8,31.275,48.469,27.8,58.489
			c-3.475,10.019-35.151,44.77-40.612,44.77c-5.461,0-14.273-3.971-14.77-12.907c0,0,22.301-33.425,17.908-38.431
			c-1.877-2.139-28.953-24.12-32.819-14.191C877.433,1324.826,883.78,1238.438,883.78,1238.438z"/>
		<path style="fill:#FCA56B;" d="M862.707,1209.772c4.488,8.589,21.213,16.015,28.188,18.746c-0.08-0.442-0.159-0.884-0.233-1.316
			c-1.127-6.374-2.1-11.85-2.1-11.85l-20.438-10.187C863.605,1205.095,860.855,1206.237,862.707,1209.772z"/>
		<path style="fill:#FFB27D;" d="M895.076,1217.471c0,0-36.095,4.149-38.333-18.368c-2.238-22.517-8.404-37.147,14.547-40.749
			c22.951-3.602,28.29,4.545,30.865,11.88C904.729,1177.567,904.407,1215.811,895.076,1217.471z"/>
		<path style="fill:#233862;" d="M901.206,1167.925c0,0-6.891,24.398-11.817,22.345c-4.926-2.053-9.428-3.736-10.099,3.885
			c-0.671,7.622,4.802,17.611-11.263,15.927c-16.065-1.684-31.042-46.787-25.23-53.683
			C859.569,1136.505,924.49,1144.192,901.206,1167.925z"/>
	</g>
	<path style="fill:#E27F2B;" d="M847.162,1752.462H383.168c22.347-16.489,102.545-74,175.18-105.057
		c30.102-12.865,58.901-21.188,81.743-20.161C712.546,1630.493,814.1,1721.115,847.162,1752.462z"/>
	<path style="fill:#FFA412;" d="M841.519,1182.333l79.481-16l-5.667-2.333c0,0-11.333-33.333-51.667-25.667
		C823.333,1146,841.519,1182.333,841.519,1182.333z"/>
</g>
</svg>
